<?xml version="1.0" encoding="UTF-8"?>
<svg xmlns="http://www.w3.org/2000/svg" xmlns:xlink="http://www.w3.org/1999/xlink" width="40pt" height="40pt" viewBox="0 0 40 40" version="1.1">
<g id="surface11381330">
<path style=" stroke:none;fill-rule:nonzero;fill:rgb(100%,100%,100%);fill-opacity:1;" d="M 21.390625 38.5 C 18.089844 38.5 15.777344 36.984375 14.507812 33.996094 C 13.859375 32.460938 13.5 30.53125 13.5 28.566406 L 13.5 16.5 L 8.5 16.5 L 8.5 12.316406 C 13.617188 9.917969 16.308594 6.28125 16.488281 1.511719 L 21.503906 1.5 L 21.5 10.5 L 29.5 10.5 L 29.5 16.5 L 21.5 16.5 L 21.5 28.382812 C 21.496094 28.832031 21.574219 30.359375 22.648438 31.441406 C 23.347656 32.144531 24.3125 32.5 25.511719 32.5 C 27.742188 32.5 30.21875 31.621094 31.5 31.101562 L 31.5 35.949219 C 30.609375 36.542969 27.222656 38.5 21.390625 38.5 Z M 21.390625 38.5 "/>
<path style=" stroke:none;fill-rule:nonzero;fill:rgb(100%,100%,100%);fill-opacity:1;" d="M 21 2 L 21 11 L 29 11 L 29 16 L 21 16 L 21 28.386719 C 20.996094 28.878906 21.082031 30.574219 22.292969 31.792969 C 23.089844 32.59375 24.175781 33 25.515625 33 C 27.46875 33 29.597656 32.355469 31 31.832031 L 31 35.675781 C 29.867188 36.375 26.667969 38 21.390625 38 C 18.3125 38 16.152344 36.585938 14.96875 33.800781 C 14.34375 32.324219 14 30.46875 14 28.5625 L 14 16 L 9 16 L 9 12.632812 C 15.066406 9.675781 16.710938 5.320312 16.964844 2.003906 C 18.070312 2.003906 19.878906 2 21 2 M 21.503906 1 C 20.367188 1 17.601562 1.003906 16.480469 1.003906 C 16.210938 1.003906 16 1.222656 15.992188 1.492188 C 15.726562 8.335938 9.953125 11.085938 8.28125 11.867188 C 8.105469 11.949219 8 12.121094 8 12.316406 L 8 16.5 C 8 16.777344 8.222656 17 8.5 17 L 13 17 L 13 28.5625 C 13 29.632812 12.992188 39 21.390625 39 C 27.40625 39 30.914062 36.941406 31.785156 36.359375 C 31.921875 36.265625 32 36.113281 32 35.949219 L 32 31.101562 C 32 30.8125 31.765625 30.597656 31.503906 30.597656 C 31.4375 30.597656 31.375 30.609375 31.3125 30.636719 C 30.140625 31.113281 27.679688 32 25.515625 32 C 21.929688 32 22 28.527344 22 28.382812 L 22 17 L 29.5 17 C 29.777344 17 30 16.777344 30 16.5 L 30 10.5 C 30 10.222656 29.777344 10 29.5 10 L 22 10 L 22 1.5 C 22 1.222656 21.78125 1 21.503906 1 Z M 21.503906 1 "/>
</g>
</svg>
